{"title":"Sardar Ji 2 (2016) 1CD XviD Desipdvd Rip -DDR","uid":15104500,"size":699106638,"categoryP":"video","categoryS":"movies","magnet":"?xt=urn:btih:7058a52209fb35fe7e852c9dc2a5c431a8faa318&amp;dn=Sardar+Ji+2+%282016%29+1CD+XviD+Desipdvd+Rip+-DDR&amp;tr=udp%3A%2F%2Ftracker.leechers-paradise.org%3A6969&amp;tr=udp%3A%2F%2Fzer0day.ch%3A1337&amp;tr=udp%3A%2F%2Fopen.demonii.com%3A1337&amp;tr=udp%3A%2F%2Ftracker.coppersurfer.tk%3A6969&amp;tr=udp%3A%2F%2Fexodus.desync.com%3A6969","seeders":6,"leechers":7,"uploader":"SaM","files":3,"time":1466973435,"description":"- PollywooD MoviE -\r\n**- SARDAR JI - 2 -**\r\n- 2016 -\r\n** 1 CD DesiPDvD rip / XviD / MP3 2.0 **\r\nNo subtitle(s)\r\n \nhttp://extraimago.com/image/a5BD  \nhttp://extraimago.com/image/a5B5  \nhttp://extraimago.com/image/a5BX  \nhttp://extraimago.com/image/a5BP  \nhttp://extraimago.com/image/a5BG  \nhttp://extraimago.com/image/a5Br  \nhttp://extraimago.com/image/a5Bp  \nhttp://extraimago.com/image/a5BY\r\n\r\n[ Specs ]\r\nGeneral\r\nSource = DesiPDVD @ DUS\r\n\r\nFormat : AVI\r\nFile size : 659 MiB\r\nDuration : 2h 13mn\r\nOverall bit rate mode : Variable\r\nOverall bit rate : 688 Kbps\r\n\r\nVideo\r\nFormat : MPEG-4 Visual\r\nFormat profile : Advanced   \r\nFormat settings, Matrix : Custom\r\nCodec ID : XVID\r\nDuration : 2h 13mn\r\nBit rate : 600 Kbps\r\nWidth : 640 pixels\r\nHeight : 272 pixels\r\nDisplay aspect ratio : 2.35:1\r\nFrame rate : 25.000 fps\r\nBit depth : 8 bits\r\nScan type : Progressive\r\nBits/(Pixel*Frame) : 0.138\r\nStream size : 574 MiB (87%)\r\n\r\nAudio\r\nCodec ID/Hint : MP3\r\nDuration : 2h 13mn\r\nBit rate mode : Variable\r\nBit rate : 80.0 Kbps\r\nChannel(s) : 2 channels\r\nSampling rate : 32.0 KHz\r\nCompression mode : Lossy\r\nStream size : 74.7 MiB (11%)\r\n\r\n\r\nChapters: No - 1\r\nSample: YES - included\r\n\r\nA DDR 8th Anniversary Exclusive Release...!","torrent":{"xt":"urn:btih:7058a52209fb35fe7e852c9dc2a5c431a8faa318","amp;dn":"Sardar+Ji+2+%282016%29+1CD+XviD+Desipdvd+Rip+-DDR","amp;tr":["udp%3A%2F%2Ftracker.leechers-paradise.org%3A6969","udp%3A%2F%2Fzer0day.ch%3A1337","udp%3A%2F%2Fopen.demonii.com%3A1337","udp%3A%2F%2Ftracker.coppersurfer.tk%3A6969","udp%3A%2F%2Fexodus.desync.com%3A6969"],"infoHash":"7058a52209fb35fe7e852c9dc2a5c431a8faa318","infoHashBuffer":{"type":"Buffer","data":[112,88,165,34,9,251,53,254,126,133,44,157,194,165,196,49,168,250,163,24]},"announce":[],"urlList":[]}}